<?xml version="1.0" encoding="utf-8"?>
<!-- Generator: Adobe Illustrator 15.0.0, SVG Export Plug-In . SVG Version: 6.00 Build 0)  -->
<!DOCTYPE svg PUBLIC "-//W3C//DTD SVG 1.1//EN" "http://www.w3.org/Graphics/SVG/1.1/DTD/svg11.dtd">
<svg version="1.1" id="Layer_1" xmlns="http://www.w3.org/2000/svg" xmlns:xlink="http://www.w3.org/1999/xlink" x="0px" y="0px"
	 width="116px" height="256px" viewBox="0 0 116 256" enable-background="new 0 0 116 256" xml:space="preserve">
<path fill="#E94E1B" d="M42.739,56.397c20.114-24.939,50.895-40.935,85.356-40.935c23.738,0,45.719,7.604,63.687,20.477V33.19
	c0-3.048,0.657-5.966,1.862-8.696c-18.866-12.332-41.375-19.533-65.549-19.533c-36.847,0-69.856,16.687-91.914,42.888
	c-2.313,2.746-4.496,5.599-6.558,8.547C15.984,75.884,7.952,99.567,7.952,125.104c0,25.54,8.032,49.22,21.671,68.707
	c2.062,2.947,4.247,5.802,6.558,8.547c22.057,26.199,55.067,42.889,91.914,42.889c24.174,0,46.683-7.199,65.549-19.533
	c-1.205-2.728-1.862-5.646-1.862-8.696v-2.748c-17.968,12.87-39.949,20.477-63.687,20.477c-34.461,0-65.242-15.995-85.356-40.936
	c-2.336-2.897-4.521-5.914-6.558-9.039c-11.194-17.185-17.729-37.671-17.729-59.667c0-21.997,6.535-42.481,17.729-59.665
	C38.218,62.312,40.405,59.291,42.739,56.397z"/>
</svg>
